<svg width="29" height="19" viewBox="0 0 29 19" fill="none" xmlns="http://www.w3.org/2000/svg">
<path d="M11.3281 8.74609C12.8418 7.96484 13.6719 6.8418 13.6719 5.13281C13.6719 1.66602 11.084 0.835938 8.1543 0.835938H0V18.1211H8.34961C11.5234 18.1211 14.4531 16.6074 14.4531 13.0918C14.4531 10.9434 13.4277 9.33203 11.3281 8.74609ZM3.75977 3.76562H7.37305C8.74023 3.76562 9.96094 4.15625 9.96094 5.76758C9.96094 7.23242 8.98438 7.81836 7.61719 7.81836H3.75977V3.76562ZM7.86133 15.1914H3.75977V10.4062H7.91016C9.61914 10.4062 10.6445 11.1387 10.6445 12.8965C10.6445 14.6543 9.375 15.1914 7.86133 15.1914ZM25.3418 3.42383V1.71484H18.3594V3.42383H25.3418ZM28.125 12.0664C28.125 8.35547 25.9277 5.23047 22.0215 5.23047C18.1641 5.23047 15.5762 8.11133 15.5762 11.8711C15.5762 15.7773 18.0664 18.4629 22.0215 18.4629C25 18.4629 26.9531 17.0957 27.8809 14.2637H24.8535C24.5117 15.3379 23.1445 15.875 22.1191 15.875C20.1172 15.875 19.043 14.7031 19.043 12.7012H28.0762C28.0762 12.5059 28.125 12.2617 28.125 12.0664ZM19.043 10.5039C19.1406 8.89258 20.2637 7.86719 21.875 7.86719C23.6328 7.86719 24.5117 8.84375 24.6582 10.5039H19.043Z" fill="#E9AD75"/>
</svg>
