<svg width="35" height="27" viewBox="0 0 35 27" fill="none" xmlns="http://www.w3.org/2000/svg">
<path d="M17.4463 7.48047L6.66504 16.3867V25.9375C6.66504 26.4648 7.0752 26.875 7.60254 26.875H14.165C14.6338 26.875 15.0439 26.4648 15.0439 25.9375V20.3125C15.0439 19.8438 15.5127 19.375 15.9814 19.375H19.7314C20.2588 19.375 20.6689 19.8438 20.6689 20.3125V25.9375C20.6689 26.4648 21.1377 26.875 21.6064 26.875H28.2275C28.6963 26.875 29.165 26.4648 29.165 25.9375V16.3281L18.3252 7.48047C18.208 7.36328 18.0322 7.30469 17.915 7.30469C17.7393 7.30469 17.5635 7.36328 17.4463 7.48047ZM34.4971 13.5156L29.6338 9.47266V1.38672C29.6338 0.976562 29.2822 0.683594 28.9307 0.683594H25.6494C25.2393 0.683594 24.9463 0.976562 24.9463 1.38672V5.60547L19.6729 1.26953C19.2041 0.917969 18.5596 0.683594 17.915 0.683594C17.2119 0.683594 16.5674 0.917969 16.0986 1.26953L1.27441 13.5156C1.09863 13.6328 0.981445 13.8672 0.981445 14.043C0.981445 14.2188 1.09863 14.3945 1.15723 14.5117L2.68066 16.3281C2.79785 16.5039 2.97363 16.5625 3.20801 16.5625C3.38379 16.5625 3.55957 16.5039 3.67676 16.3867L17.4463 5.07812C17.5635 4.96094 17.7393 4.90234 17.915 4.90234C18.0322 4.90234 18.208 4.96094 18.3252 5.07812L32.0947 16.3867C32.2119 16.5039 32.3877 16.5625 32.5635 16.5625C32.7979 16.5625 32.9736 16.5039 33.0908 16.3281L34.6143 14.5117C34.7314 14.3945 34.79 14.2188 34.79 14.043C34.79 13.8672 34.6729 13.6328 34.4971 13.5156Z" fill="#3C6A78"/>
</svg>
