<svg width="27" height="27" viewBox="0 0 27 27" fill="none" xmlns="http://www.w3.org/2000/svg">
<path d="M24.415 0.625H1.85645C0.860352 0.625 0.0400391 1.50391 0.0400391 2.55859V25C0.0400391 26.0547 0.860352 26.875 1.85645 26.875H24.415C25.4111 26.875 26.29 26.0547 26.29 25V2.55859C26.29 1.50391 25.4111 0.625 24.415 0.625ZM7.9502 23.125H4.08301V10.6445H7.9502V23.125ZM6.0166 8.88672C4.72754 8.88672 3.73145 7.89062 3.73145 6.66016C3.73145 5.42969 4.72754 4.375 6.0166 4.375C7.24707 4.375 8.24316 5.42969 8.24316 6.66016C8.24316 7.89062 7.24707 8.88672 6.0166 8.88672ZM22.54 23.125H18.6143V17.0312C18.6143 15.625 18.6143 13.75 16.6221 13.75C14.5713 13.75 14.2783 15.332 14.2783 16.9727V23.125H10.4111V10.6445H14.1025V12.3438H14.1611C14.6885 11.3477 15.9775 10.293 17.8525 10.293C21.7783 10.293 22.54 12.9297 22.54 16.2695V23.125Z" fill="#AFAFAF"/>
</svg>
