<svg width="27" height="27" viewBox="0 0 27 27" fill="none" xmlns="http://www.w3.org/2000/svg">
<path d="M24.4141 0.625H1.85547C0.859375 0.625 0.0390625 1.50391 0.0390625 2.55859V25C0.0390625 26.0547 0.859375 26.875 1.85547 26.875H24.4141C25.4102 26.875 26.2891 26.0547 26.2891 25V2.55859C26.2891 1.50391 25.4102 0.625 24.4141 0.625ZM7.94922 23.125H4.08203V10.6445H7.94922V23.125ZM6.01562 8.88672C4.72656 8.88672 3.73047 7.89062 3.73047 6.66016C3.73047 5.42969 4.72656 4.375 6.01562 4.375C7.24609 4.375 8.24219 5.42969 8.24219 6.66016C8.24219 7.89062 7.24609 8.88672 6.01562 8.88672ZM22.5391 23.125H18.6133V17.0312C18.6133 15.625 18.6133 13.75 16.6211 13.75C14.5703 13.75 14.2773 15.332 14.2773 16.9727V23.125H10.4102V10.6445H14.1016V12.3438H14.1602C14.6875 11.3477 15.9766 10.293 17.8516 10.293C21.7773 10.293 22.5391 12.9297 22.5391 16.2695V23.125Z" fill="#E9AD75"/>
</svg>
