<svg width="31" height="23" viewBox="0 0 31 23" fill="none" xmlns="http://www.w3.org/2000/svg">
<path d="M27.2275 0.5H2.85254C1.27051 0.5 0.0400391 1.78906 0.0400391 3.3125V20.1875C0.0400391 21.7695 1.27051 23 2.85254 23H27.2275C28.751 23 30.04 21.7695 30.04 20.1875V3.3125C30.04 1.78906 28.751 0.5 27.2275 0.5ZM27.2275 3.3125V5.71484C25.8799 6.82812 23.7705 8.46875 19.3174 11.9844C18.3213 12.7461 16.3877 14.6211 15.04 14.5625C13.6338 14.6211 11.7002 12.7461 10.7041 11.9844C6.25098 8.46875 4.1416 6.82812 2.85254 5.71484V3.3125H27.2275ZM2.85254 20.1875V9.34766C4.1416 10.4023 6.0752 11.9258 8.94629 14.2109C10.2354 15.207 12.5205 17.4336 15.04 17.375C17.501 17.4336 19.7275 15.207 21.0752 14.2109C23.9463 11.9258 25.8799 10.4023 27.2275 9.34766V20.1875H2.85254Z" fill="#AFAFAF"/>
</svg>
