<svg width="31" height="23" viewBox="0 0 31 23" fill="none" xmlns="http://www.w3.org/2000/svg">
<path d="M27.2266 0.5H2.85156C1.26953 0.5 0.0390625 1.78906 0.0390625 3.3125V20.1875C0.0390625 21.7695 1.26953 23 2.85156 23H27.2266C28.75 23 30.0391 21.7695 30.0391 20.1875V3.3125C30.0391 1.78906 28.75 0.5 27.2266 0.5ZM27.2266 3.3125V5.71484C25.8789 6.82812 23.7695 8.46875 19.3164 11.9844C18.3203 12.7461 16.3867 14.6211 15.0391 14.5625C13.6328 14.6211 11.6992 12.7461 10.7031 11.9844C6.25 8.46875 4.14062 6.82812 2.85156 5.71484V3.3125H27.2266ZM2.85156 20.1875V9.34766C4.14062 10.4023 6.07422 11.9258 8.94531 14.2109C10.2344 15.207 12.5195 17.4336 15.0391 17.375C17.5 17.4336 19.7266 15.207 21.0742 14.2109C23.9453 11.9258 25.8789 10.4023 27.2266 9.34766V20.1875H2.85156Z" fill="#E9AD75"/>
</svg>
