<svg width="38" height="34" viewBox="0 0 38 34" fill="none" xmlns="http://www.w3.org/2000/svg">
<path d="M33.0809 11.421H6.19727V26.1579H33.0809V11.421Z" fill="#151515" stroke="#E9AD75" stroke-width="2" stroke-miterlimit="10"/>
<path d="M5.62713 27.1157C4.38469 28.9333 2.80494 30.7877 1.5625 32.6053H36.7893C35.7456 30.7781 34.3907 28.9116 33.6279 27.1157C24.3462 27.0331 14.9089 27.1157 5.62713 27.1157Z" fill="#E9AD75" stroke="#E9AD75" stroke-miterlimit="10"/>
<path d="M21.9333 15.0397C22.9686 13.527 24.3566 11.709 26.275 9.86321C27.413 8.75478 28.6775 7.72162 31.2018 5.72109C34.2197 3.2932 36.5324 1.47583 36.8418 1.76272C36.9636 1.90379 33.25 7.52241 33.25 7.52241C28.857 12.4967 29.139 12.2525 28.7159 12.6188C27.5123 13.7225 25.8246 15.122 23.5456 16.4788L21.9333 15.0397Z" fill="#1C1C1C" stroke="#E9AD75" stroke-width="2" stroke-miterlimit="10"/>
<path d="M20.0744 16.8685C19.6524 16.9692 18.9362 17.2567 18.1816 17.9032C16.5969 19.2608 16.3973 21.1277 16.3589 21.4867C16.2206 22.7792 16.5723 23.9781 16.7155 23.9206C16.7833 23.9278 16.7015 23.4108 16.9662 22.8579C17.5789 21.6155 19.1673 22.1462 20.2698 20.8103C20.353 20.6739 20.3606 20.6021 20.4438 20.4656C20.7994 19.7044 20.9516 18.9217 21.3596 18.3113C20.8634 17.8232 20.5629 17.4284 20.0744 16.8685Z" fill="#E9AD75" stroke="#E9AD75" stroke-miterlimit="10"/>
</svg>
