<svg width="27" height="31" viewBox="0 0 27 31" fill="none" xmlns="http://www.w3.org/2000/svg">
<path d="M18.3799 18.5625C16.6807 18.5625 15.9189 19.5 13.165 19.5C10.3525 19.5 9.59082 18.5625 7.8916 18.5625C3.55566 18.5625 0.0400391 22.1367 0.0400391 26.4727V27.9375C0.0400391 29.5195 1.27051 30.75 2.85254 30.75H23.4775C25.001 30.75 26.29 29.5195 26.29 27.9375V26.4727C26.29 22.1367 22.7158 18.5625 18.3799 18.5625ZM23.4775 27.9375H2.85254V26.4727C2.85254 23.6602 5.0791 21.375 7.8916 21.375C8.77051 21.375 10.1182 22.3125 13.165 22.3125C16.1533 22.3125 17.501 21.375 18.3799 21.375C21.1924 21.375 23.4775 23.6602 23.4775 26.4727V27.9375ZM13.165 17.625C17.7939 17.625 21.6025 13.875 21.6025 9.1875C21.6025 4.55859 17.7939 0.75 13.165 0.75C8.47754 0.75 4.72754 4.55859 4.72754 9.1875C4.72754 13.875 8.47754 17.625 13.165 17.625ZM13.165 3.5625C16.2119 3.5625 18.79 6.14062 18.79 9.1875C18.79 12.293 16.2119 14.8125 13.165 14.8125C10.0596 14.8125 7.54004 12.293 7.54004 9.1875C7.54004 6.14062 10.0596 3.5625 13.165 3.5625Z" fill="#E9AD75"/>
</svg>
